inDegrees=no
num_controls=7
num_derivatives=13
num_iterations=132
num_multipliers=7
num_parameters=0
num_slacks=7
num_states=26
objective=0.496880
objective_accelerations=0.043216
objective_balance=0.003650
objective_effort=0.039698
objective_height=0.404806
objective_ligament=0.005510
solver_duration=1524.781731
status=Solve_Succeeded
success=true
DataType=double
version=3
OpenSimVersion=4.5
endheader
time	/jointset/ground_pelvis/pelvis_tilt/value	/jointset/ground_pelvis/pelvis_tx/value	/jointset/ground_pelvis/pelvis_ty/value	/jointset/hip_r/hip_flexion_r/value	/jointset/hip_r/hip_adduction_r/value	/jointset/hip_r/hip_rotation_r/value	/jointset/back/lumbar_extension/value	/jointset/patellofemoral_r/patellar_flexion_r/value	/jointset/knee_r/knee_flexion_r/value	/jointset/knee_r/knee_adduction_r/value	/jointset/knee_r/knee_rotation_r/value	/jointset/ankle_r/ankle_angle_r/value	/jointset/subtalar_r/subtalar_angle_r/value	/jointset/ground_pelvis/pelvis_tilt/speed	/jointset/ground_pelvis/pelvis_tx/speed	/jointset/ground_pelvis/pelvis_ty/speed	/jointset/hip_r/hip_flexion_r/speed	/jointset/hip_r/hip_adduction_r/speed	/jointset/hip_r/hip_rotation_r/speed	/jointset/back/lumbar_extension/speed	/jointset/patellofemoral_r/patellar_flexion_r/speed	/jointset/knee_r/knee_flexion_r/speed	/jointset/knee_r/knee_adduction_r/speed	/jointset/knee_r/knee_rotation_r/speed	/jointset/ankle_r/ankle_angle_r/speed	/jointset/subtalar_r/subtalar_angle_r/speed	/forceset/tau_hip_flexion_r	/forceset/tau_hip_adduction_r	/forceset/tau_hip_rotation_r	/forceset/tau_knee_flexion_r	/forceset/tau_ankle_angle_r	/forceset/tau_subtalar_angle_r	/forceset/tau_lumbar_extension	lambda_cid13_p0	lambda_cid14_p0	lambda_cid14_p1	lambda_cid14_p2	lambda_cid14_p3	lambda_cid14_p4	lambda_cid14_p5	/jointset/ground_pelvis/pelvis_tilt/accel	/jointset/ground_pelvis/pelvis_tx/accel	/jointset/ground_pelvis/pelvis_ty/accel	/jointset/hip_r/hip_flexion_r/accel	/jointset/hip_r/hip_adduction_r/accel	/jointset/hip_r/hip_rotation_r/accel	/jointset/back/lumbar_extension/accel	/jointset/patellofemoral_r/patellar_flexion_r/accel	/jointset/knee_r/knee_flexion_r/accel	/jointset/knee_r/knee_adduction_r/accel	/jointset/knee_r/knee_rotation_r/accel	/jointset/ankle_r/ankle_angle_r/accel	/jointset/subtalar_r/subtalar_angle_r/accel	gamma_cid13_p0	gamma_cid14_p0	gamma_cid14_p1	gamma_cid14_p2	gamma_cid14_p3	gamma_cid14_p4	gamma_cid14_p5
1	-0.2583633781800144	0.007356651381462557	0.691768589063278	1.336817580791764	-0.2302204887456696	-0.08845122584359127	-0.4363255611537699	1.311933154757522	1.311933154757559	-0.0973687859668087	0.1743286438726274	0.4363026993508563	0.114639106933083	-0.001280205102978314	0.003783706133781883	0.01582040230476814	-0.04143537622336063	0.001798851640705485	-0.005733568763376586	0.001244824744039802	-0.0511889863257611	-0.05118898632575787	0.006004526921703732	-0.0002724043626655765	-0.01000281364565336	-0.0008619362970170065	-0.2518267767647303	0.02203985775506681	0.0124154053889553	-0.4917055718921395	0.0005834882297946507	0.005235948225903236	0.2804795991747636	-0.04568279582890281	-48.69674337918381	-7.757853727182593	3.41628727628916	16.58532267605746	-794.4022962138279	60.04410522208931	1.162835445850995	0.08560286870810728	1.634302598518244	-5.008309268260377	0.1414133696798126	-0.2595408784978288	0.1339406607842493	-5.049761911232923	-5.049761911232959	0.9656842455032391	0.008236457021957582	-1.408268652120601	-0.3254911597787121	2.156909275686191e-09	5.714811654181463e-10	1.911261390441401e-08	2.128471224076699e-08	4.218104862804324e-09	-5.216440655651568e-09	2.66400849471495e-08
1.01	-0.258319063302352	0.007398863141531623	0.6920083545490433	1.336153903972927	-0.2301955337835781	-0.0885201957113065	-0.436304223432059	1.311168990147692	1.311168990147692	-0.09725905857046678	0.1743260467014491	0.4361322988929519	0.1146140219261454	0.01010423552901498	0.004670505973348708	0.03213058793472517	-0.09127922699706156	0.003185987910941755	-0.008066760393918796	0.003169452957897962	-0.1016572818672595	-0.1016572818672527	0.01594803118326645	-0.000236363718595512	-0.02407451316683343	-0.004163750631780986	-0.2528560195042456	0.02222636646616382	0.01240666247910199	-0.4907877730974398	-0.0005244339145096692	0.005328307627283167	0.2814615296396924	-0.04568503055830703	-49.06675319762527	-7.76918672069777	3.402855180223673	16.69606603259201	-794.8216337993837	59.96422611383872	1.120408251196518	0.09199777504778897	1.629058679234348	-4.969307444596485	0.1364477069206614	-0.2211594184901196	0.2437339052737131	-5.047366081708169	-5.047366081707601	1.009747533665363	0.002898738729894676	-1.406207016546656	-0.3338182001835306	3.843306029604159e-09	3.901773880965457e-09	3.970890257685121e-08	4.12385401179739e-08	1.128506145909552e-09	-9.105530593231528e-09	5.488505048810834e-08
1.02	-0.2581620720425052	0.007450298746689774	0.6924111583179081	1.334992411753824	-0.230156890668539	-0.08861268771795813	-0.4362592374274755	1.309899742041227	1.309899742041186	-0.09704968332807261	0.1743241321108379	0.4358212641569484	0.1145556604498885	0.02125507133393024	0.00562847515159909	0.04842805892467553	-0.140998456277622	0.004536482230183297	-0.01043799655076911	0.005974481315239037	-0.1522056856527531	-0.1522056856527426	0.02593409613213172	-0.0001358882493115966	-0.03812966926521132	-0.007517230160875919	-0.2538852622437296	0.02241287517726334	0.01239791956924084	-0.4898699743027391	-0.00163235605881711	0.005420667028666032	0.2824434601046512	-0.04569316545592072	-49.44720852893414	-7.778219010368158	3.384338943962315	16.82760924205337	-795.4080414728494	59.9104360615757	1.11611448043539	0.09983673644482219	1.631759670516912	-4.983384969632284	0.1340849794808668	-0.2671497837594531	0.3100206894807869	-5.065783560031973	-5.065783560031988	0.9741963829637454	0.02112342206472812	-1.404959967560154	-0.3358241986448999	5.701904718147126e-09	7.356150498622822e-09	5.40824645708991e-08	6.231574552768575e-08	-1.701504141638107e-09	-1.160737702881241e-08	7.735646352825785e-08
1.03	-0.2578947959656688	0.007511676659832188	0.692976796085042	1.333334541211202	-0.2301048756165887	-0.08872908009860056	-0.4361818401016794	1.308124703623496	1.308124703623522	-0.09674034646572351	0.1743233900947225	0.4353697351389886	0.11446359073137	0.03215316764867662	0.006659705937327291	0.06468940077926964	-0.1905332549883262	0.005865054499018664	-0.01284260826244456	0.009650949942464871	-0.2028057871741733	-0.2028057871741814	0.0359336092625029	-1.782712808260788e-05	-0.05217620460827273	-0.01089770090958519	-0.2544847180751103	0.02253114028910392	0.01242317708479098	-0.4887924250889594	-0.00234486235585171	0.005467817913521988	0.2830825462832594	-0.04570276322567705	-49.67382504737088	-7.780456739917425	3.365319397432586	16.85464990756063	-795.5250739249165	59.8362668905069	1.069613505747652	0.106655095804246	1.621804550409114	-4.932165209784666	0.1320358081990675	-0.2274305412160483	0.4183548640467551	-5.057693364005305	-5.057693364008079	1.012881747523811	0.006372159141269465	-1.404512287357987	-0.3392858813277574	7.56226056928831e-09	1.081179327854662e-08	6.839252935394298e-08	8.340441397344357e-08	-4.528865567661815e-09	-1.409506791845452e-08	9.976896276737865e-08
1.04	-0.2575199476659347	0.007583744650065417	0.6937047438922177	1.331182595103877	-0.2300396163504275	-0.08886958133162766	-0.4360632991066676	1.305843550207389	1.305843550207479	-0.09633100387818114	0.1743236736302178	0.434777738373662	0.1143376908316957	0.04276951591355922	0.007766490569762336	0.08089006693299843	-0.2398135692188362	0.007185325072422043	-0.01525976702789835	0.01420321515782063	-0.2534286853279244	-0.2534286853279511	0.04593524117087404	6.922207271707192e-05	-0.0662232187384882	-0.01428326639204647	-0.2550841739064711	0.02264940540094683	0.01244843460033638	-0.4877148758751793	-0.00305736865288814	0.00551496879838137	0.2837216324618864	-0.04571793992771016	-49.91097655780509	-7.780401448238033	3.341207813029601	16.90176371837926	-795.8113279057236	59.78806666038574	1.059764870462634	0.1149475057861944	1.61962453034385	-4.932488073593444	0.1324246403944695	-0.2696591945151241	0.4851800071067626	-5.070342886498159	-5.070342886498164	0.974620138563733	0.01492103797886578	-1.405055724990959	-0.3368431453952971	8.873112224373425e-09	1.365211260915294e-08	8.451628337617238e-08	1.005414467773254e-07	-7.269274434538642e-09	-1.650959302463002e-08	1.211190564988138e-07
1.05	-0.2570401619258925	0.007667288027387986	0.6945943342746421	1.328539045955289	-0.2299612529876724	-0.0890344796560268	-0.4358950490560368	1.303056188319779	1.303056188320333	-0.09582174203581034	0.1743247940195826	0.4340452890953948	0.1141778333501126	0.05315627861760257	0.008957819883277927	0.097011503890496	-0.2888582864412509	0.008480175839208268	-0.01772952333484514	0.01957707805194153	-0.3040334424532845	-0.3040334424532902	0.05591515985887489	0.000158936062000163	-0.08026477517902506	-0.01769703436044977	-0.2553751141363423	0.02269224302393408	0.01249516401077825	-0.4863186435719813	-0.003551629254858798	0.005546069795477897	0.2841037275764288	-0.0457304273092432	-50.04782074859362	-7.766018369279349	3.310545814133454	16.8646860987678	-795.6143178440832	59.71835619999461	1.023432648621636	0.1235688633779113	1.605923620510587	-4.88476401298812	0.126958733986448	-0.2370701687394769	0.5830318930826468	-5.054006710856235	-5.054006710853072	1.009387570117219	0.00663911339421134	-1.40342831029389	-0.344934385777572	1.016679187333179e-08	1.647320308196809e-08	1.006967151871263e-07	1.175549909673985e-07	-1.000696603394213e-08	-1.892183170007219e-08	1.424359500581339e-07
